<svg width="30" height="30" viewBox="0 0 30 30" fill="none" xmlns="http://www.w3.org/2000/svg">
<path d="M15 17.5C15.2472 17.5 15.4889 17.4267 15.6945 17.2893C15.9 17.152 16.0602 16.9568 16.1549 16.7284C16.2495 16.4999 16.2742 16.2486 16.226 16.0061C16.1778 15.7637 16.0587 15.5409 15.8839 15.3661C15.7091 15.1913 15.4863 15.0722 15.2439 15.024C15.0014 14.9758 14.7501 15.0005 14.5216 15.0951C14.2932 15.1898 14.098 15.35 13.9607 15.5555C13.8233 15.7611 13.75 16.0028 13.75 16.25C13.75 16.5815 13.8817 16.8995 14.1161 17.1339C14.3505 17.3683 14.6685 17.5 15 17.5ZM21.25 17.5C21.4972 17.5 21.7389 17.4267 21.9445 17.2893C22.15 17.152 22.3102 16.9568 22.4049 16.7284C22.4995 16.4999 22.5242 16.2486 22.476 16.0061C22.4277 15.7637 22.3087 15.5409 22.1339 15.3661C21.9591 15.1913 21.7363 15.0722 21.4939 15.024C21.2514 14.9758 21.0001 15.0005 20.7716 15.0951C20.5432 15.1898 20.348 15.35 20.2107 15.5555C20.0733 15.7611 20 16.0028 20 16.25C20 16.5815 20.1317 16.8995 20.3661 17.1339C20.6005 17.3683 20.9185 17.5 21.25 17.5ZM15 22.5C15.2472 22.5 15.4889 22.4267 15.6945 22.2893C15.9 22.152 16.0602 21.9568 16.1549 21.7284C16.2495 21.4999 16.2742 21.2486 16.226 21.0061C16.1778 20.7637 16.0587 20.5409 15.8839 20.3661C15.7091 20.1913 15.4863 20.0723 15.2439 20.024C15.0014 19.9758 14.7501 20.0005 14.5216 20.0951C14.2932 20.1898 14.098 20.35 13.9607 20.5555C13.8233 20.7611 13.75 21.0028 13.75 21.25C13.75 21.5815 13.8817 21.8995 14.1161 22.1339C14.3505 22.3683 14.6685 22.5 15 22.5ZM21.25 22.5C21.4972 22.5 21.7389 22.4267 21.9445 22.2893C22.15 22.152 22.3102 21.9568 22.4049 21.7284C22.4995 21.4999 22.5242 21.2486 22.476 21.0061C22.4277 20.7637 22.3087 20.5409 22.1339 20.3661C21.9591 20.1913 21.7363 20.0723 21.4939 20.024C21.2514 19.9758 21.0001 20.0005 20.7716 20.0951C20.5432 20.1898 20.348 20.35 20.2107 20.5555C20.0733 20.7611 20 21.0028 20 21.25C20 21.5815 20.1317 21.8995 20.3661 22.1339C20.6005 22.3683 20.9185 22.5 21.25 22.5ZM8.75 17.5C8.99723 17.5 9.2389 17.4267 9.44446 17.2893C9.65002 17.152 9.81024 16.9568 9.90485 16.7284C9.99946 16.4999 10.0242 16.2486 9.97598 16.0061C9.92775 15.7637 9.8087 15.5409 9.63388 15.3661C9.45907 15.1913 9.23634 15.0722 8.99386 15.024C8.75139 14.9758 8.50005 15.0005 8.27165 15.0951C8.04324 15.1898 7.84801 15.35 7.71066 15.5555C7.57331 15.7611 7.5 16.0028 7.5 16.25C7.5 16.5815 7.6317 16.8995 7.86612 17.1339C8.10054 17.3683 8.41848 17.5 8.75 17.5ZM23.75 5H22.5V3.75C22.5 3.41848 22.3683 3.10054 22.1339 2.86612C21.8995 2.6317 21.5815 2.5 21.25 2.5C20.9185 2.5 20.6005 2.6317 20.3661 2.86612C20.1317 3.10054 20 3.41848 20 3.75V5H10V3.75C10 3.41848 9.8683 3.10054 9.63388 2.86612C9.39946 2.6317 9.08152 2.5 8.75 2.5C8.41848 2.5 8.10054 2.6317 7.86612 2.86612C7.6317 3.10054 7.5 3.41848 7.5 3.75V5H6.25C5.25544 5 4.30161 5.39509 3.59835 6.09835C2.89509 6.80161 2.5 7.75544 2.5 8.75V23.75C2.5 24.7446 2.89509 25.6984 3.59835 26.4017C4.30161 27.1049 5.25544 27.5 6.25 27.5H23.75C24.7446 27.5 25.6984 27.1049 26.4017 26.4017C27.1049 25.6984 27.5 24.7446 27.5 23.75V8.75C27.5 7.75544 27.1049 6.80161 26.4017 6.09835C25.6984 5.39509 24.7446 5 23.75 5ZM25 23.75C25 24.0815 24.8683 24.3995 24.6339 24.6339C24.3995 24.8683 24.0815 25 23.75 25H6.25C5.91848 25 5.60054 24.8683 5.36612 24.6339C5.1317 24.3995 5 24.0815 5 23.75V12.5H25V23.75ZM25 10H5V8.75C5 8.41848 5.1317 8.10054 5.36612 7.86612C5.60054 7.6317 5.91848 7.5 6.25 7.5H23.75C24.0815 7.5 24.3995 7.6317 24.6339 7.86612C24.8683 8.10054 25 8.41848 25 8.75V10ZM8.75 22.5C8.99723 22.5 9.2389 22.4267 9.44446 22.2893C9.65002 22.152 9.81024 21.9568 9.90485 21.7284C9.99946 21.4999 10.0242 21.2486 9.97598 21.0061C9.92775 20.7637 9.8087 20.5409 9.63388 20.3661C9.45907 20.1913 9.23634 20.0723 8.99386 20.024C8.75139 19.9758 8.50005 20.0005 8.27165 20.0951C8.04324 20.1898 7.84801 20.35 7.71066 20.5555C7.57331 20.7611 7.5 21.0028 7.5 21.25C7.5 21.5815 7.6317 21.8995 7.86612 22.1339C8.10054 22.3683 8.41848 22.5 8.75 22.5Z" fill="#A3A5AB"/>
</svg>
