<svg width="24" height="25" viewBox="0 0 24 25" fill="none" xmlns="http://www.w3.org/2000/svg">
<path d="M17 9.67C16.8126 9.48375 16.5592 9.37921 16.295 9.37921C16.0308 9.37921 15.7774 9.48375 15.59 9.67L12 13.21L8.46001 9.67C8.27265 9.48375 8.0192 9.37921 7.75501 9.37921C7.49082 9.37921 7.23737 9.48375 7.05001 9.67C6.95628 9.76297 6.88189 9.87357 6.83112 9.99543C6.78035 10.1173 6.75421 10.248 6.75421 10.38C6.75421 10.512 6.78035 10.6427 6.83112 10.7646C6.88189 10.8864 6.95628 10.997 7.05001 11.09L11.29 15.33C11.383 15.4237 11.4936 15.4981 11.6154 15.5489C11.7373 15.5997 11.868 15.6258 12 15.6258C12.132 15.6258 12.2627 15.5997 12.3846 15.5489C12.5064 15.4981 12.617 15.4237 12.71 15.33L17 11.09C17.0937 10.997 17.1681 10.8864 17.2189 10.7646C17.2697 10.6427 17.2958 10.512 17.2958 10.38C17.2958 10.248 17.2697 10.1173 17.2189 9.99543C17.1681 9.87357 17.0937 9.76297 17 9.67Z" fill="#1D1F24"/>
</svg>
