<svg width="16" height="17" viewBox="0 0 16 17" fill="none" xmlns="http://www.w3.org/2000/svg">
<path d="M7.99999 5.16667C8.2637 5.16667 8.52148 5.08847 8.74075 4.94196C8.96002 4.79545 9.13091 4.58721 9.23183 4.34358C9.33275 4.09994 9.35915 3.83185 9.3077 3.57321C9.25626 3.31457 9.12927 3.07699 8.9428 2.89052C8.75633 2.70405 8.51875 2.57707 8.26011 2.52562C8.00147 2.47417 7.73338 2.50058 7.48975 2.60149C7.24611 2.70241 7.03787 2.87331 6.89136 3.09257C6.74486 3.31184 6.66666 3.56963 6.66666 3.83333C6.66666 4.18696 6.80713 4.52609 7.05718 4.77614C7.30723 5.02619 7.64637 5.16667 7.99999 5.16667ZM7.99999 11.8333C7.73628 11.8333 7.4785 11.9115 7.25923 12.058C7.03996 12.2045 6.86907 12.4128 6.76815 12.6564C6.66723 12.9001 6.64083 13.1681 6.69228 13.4268C6.74372 13.6854 6.87071 13.923 7.05718 14.1095C7.24365 14.2959 7.48123 14.4229 7.73987 14.4744C7.99851 14.5258 8.2666 14.4994 8.51023 14.3985C8.75387 14.2976 8.96211 14.1267 9.10862 13.9074C9.25512 13.6882 9.33332 13.4304 9.33332 13.1667C9.33332 12.813 9.19285 12.4739 8.9428 12.2239C8.69275 11.9738 8.35361 11.8333 7.99999 11.8333ZM7.99999 7.16667C7.73628 7.16667 7.4785 7.24487 7.25923 7.39137C7.03996 7.53788 6.86907 7.74612 6.76815 7.98976C6.66723 8.23339 6.64083 8.50148 6.69228 8.76012C6.74372 9.01876 6.87071 9.25634 7.05718 9.44281C7.24365 9.62928 7.48123 9.75627 7.73987 9.80771C7.99851 9.85916 8.2666 9.83276 8.51023 9.73184C8.75387 9.63092 8.96211 9.46003 9.10862 9.24076C9.25512 9.0215 9.33332 8.76371 9.33332 8.5C9.33332 8.14638 9.19285 7.80724 8.9428 7.55719C8.69275 7.30714 8.35361 7.16667 7.99999 7.16667Z" fill="white"/>
</svg>
