<svg width="24" height="25" viewBox="0 0 24 25" fill="none" xmlns="http://www.w3.org/2000/svg">
<path d="M6.16715 11.3333H15.0258L11.1742 7.49813C10.9545 7.27862 10.831 6.98091 10.831 6.67048C10.831 6.36005 10.9545 6.06233 11.1742 5.84282C11.394 5.62332 11.6921 5.5 12.0029 5.5C12.3137 5.5 12.6118 5.62332 12.8316 5.84282L18.6673 11.6714C18.7736 11.7822 18.8569 11.9129 18.9124 12.056C19.0292 12.3398 19.0292 12.6582 18.9124 12.942C18.8569 13.0851 18.7736 13.2158 18.6673 13.3267L12.8316 19.1552C12.7231 19.2644 12.594 19.3512 12.4518 19.4104C12.3095 19.4695 12.157 19.5 12.0029 19.5C11.8488 19.5 11.6963 19.4695 11.554 19.4104C11.4118 19.3512 11.2827 19.2644 11.1742 19.1552C11.0648 19.0468 10.978 18.9179 10.9188 18.7758C10.8595 18.6338 10.829 18.4814 10.829 18.3275C10.829 18.1736 10.8595 18.0213 10.9188 17.8792C10.978 17.7372 11.0648 17.6083 11.1742 17.4999L15.0258 13.6647H6.16715C5.8576 13.6647 5.56073 13.5419 5.34185 13.3233C5.12297 13.1047 5 12.8082 5 12.499C5 12.1898 5.12297 11.8933 5.34185 11.6747C5.56073 11.4561 5.8576 11.3333 6.16715 11.3333Z" fill="#4354FA"/>
</svg>
