<svg width="16" height="16" viewBox="0 0 16 16" fill="none" xmlns="http://www.w3.org/2000/svg">
<path d="M8 9.33334C8.13185 9.33334 8.26075 9.29424 8.37038 9.22099C8.48001 9.14774 8.56546 9.04362 8.61592 8.9218C8.66638 8.79998 8.67958 8.66594 8.65386 8.53662C8.62813 8.4073 8.56464 8.28851 8.4714 8.19527C8.37817 8.10204 8.25938 8.03854 8.13006 8.01282C8.00074 7.9871 7.86669 8.0003 7.74488 8.05076C7.62306 8.10122 7.51894 8.18666 7.44569 8.2963C7.37243 8.40593 7.33333 8.53482 7.33333 8.66668C7.33333 8.84349 7.40357 9.01306 7.52859 9.13808C7.65362 9.26311 7.82319 9.33334 8 9.33334ZM11.3333 9.33334C11.4652 9.33334 11.5941 9.29424 11.7037 9.22099C11.8133 9.14774 11.8988 9.04362 11.9493 8.9218C11.9997 8.79998 12.0129 8.66594 11.9872 8.53662C11.9615 8.4073 11.898 8.28851 11.8047 8.19527C11.7115 8.10204 11.5927 8.03854 11.4634 8.01282C11.3341 7.9871 11.2 8.0003 11.0782 8.05076C10.9564 8.10122 10.8523 8.18666 10.779 8.2963C10.7058 8.40593 10.6667 8.53482 10.6667 8.66668C10.6667 8.84349 10.7369 9.01306 10.8619 9.13808C10.987 9.26311 11.1565 9.33334 11.3333 9.33334ZM8 12C8.13185 12 8.26075 11.9609 8.37038 11.8877C8.48001 11.8144 8.56546 11.7103 8.61592 11.5885C8.66638 11.4666 8.67958 11.3326 8.65386 11.2033C8.62813 11.074 8.56464 10.9552 8.4714 10.8619C8.37817 10.7687 8.25938 10.7052 8.13006 10.6795C8.00074 10.6538 7.86669 10.667 7.74488 10.7174C7.62306 10.7679 7.51894 10.8533 7.44569 10.963C7.37243 11.0726 7.33333 11.2015 7.33333 11.3333C7.33333 11.5102 7.40357 11.6797 7.52859 11.8047C7.65362 11.9298 7.82319 12 8 12ZM11.3333 12C11.4652 12 11.5941 11.9609 11.7037 11.8877C11.8133 11.8144 11.8988 11.7103 11.9493 11.5885C11.9997 11.4666 12.0129 11.3326 11.9872 11.2033C11.9615 11.074 11.898 10.9552 11.8047 10.8619C11.7115 10.7687 11.5927 10.7052 11.4634 10.6795C11.3341 10.6538 11.2 10.667 11.0782 10.7174C10.9564 10.7679 10.8523 10.8533 10.779 10.963C10.7058 11.0726 10.6667 11.2015 10.6667 11.3333C10.6667 11.5102 10.7369 11.6797 10.8619 11.8047C10.987 11.9298 11.1565 12 11.3333 12ZM4.66667 9.33334C4.79852 9.33334 4.92741 9.29424 5.03705 9.22099C5.14668 9.14774 5.23213 9.04362 5.28259 8.9218C5.33304 8.79998 5.34625 8.66594 5.32052 8.53662C5.2948 8.4073 5.2313 8.28851 5.13807 8.19527C5.04483 8.10204 4.92605 8.03854 4.79673 8.01282C4.66741 7.9871 4.53336 8.0003 4.41154 8.05076C4.28973 8.10122 4.18561 8.18666 4.11235 8.2963C4.0391 8.40593 4 8.53482 4 8.66668C4 8.84349 4.07024 9.01306 4.19526 9.13808C4.32029 9.26311 4.48985 9.33334 4.66667 9.33334ZM12.6667 2.66668H12V2.00001C12 1.8232 11.9298 1.65363 11.8047 1.52861C11.6797 1.40358 11.5101 1.33334 11.3333 1.33334C11.1565 1.33334 10.987 1.40358 10.8619 1.52861C10.7369 1.65363 10.6667 1.8232 10.6667 2.00001V2.66668H5.33333V2.00001C5.33333 1.8232 5.26309 1.65363 5.13807 1.52861C5.01305 1.40358 4.84348 1.33334 4.66667 1.33334C4.48985 1.33334 4.32029 1.40358 4.19526 1.52861C4.07024 1.65363 4 1.8232 4 2.00001V2.66668H3.33333C2.8029 2.66668 2.29419 2.87739 1.91912 3.25246C1.54405 3.62754 1.33333 4.13624 1.33333 4.66668V12.6667C1.33333 13.1971 1.54405 13.7058 1.91912 14.0809C2.29419 14.456 2.8029 14.6667 3.33333 14.6667H12.6667C13.1971 14.6667 13.7058 14.456 14.0809 14.0809C14.456 13.7058 14.6667 13.1971 14.6667 12.6667V4.66668C14.6667 4.13624 14.456 3.62754 14.0809 3.25246C13.7058 2.87739 13.1971 2.66668 12.6667 2.66668ZM13.3333 12.6667C13.3333 12.8435 13.2631 13.0131 13.1381 13.1381C13.013 13.2631 12.8435 13.3333 12.6667 13.3333H3.33333C3.15652 13.3333 2.98695 13.2631 2.86193 13.1381C2.7369 13.0131 2.66667 12.8435 2.66667 12.6667V6.66668H13.3333V12.6667ZM13.3333 5.33334H2.66667V4.66668C2.66667 4.48987 2.7369 4.3203 2.86193 4.19527C2.98695 4.07025 3.15652 4.00001 3.33333 4.00001H12.6667C12.8435 4.00001 13.013 4.07025 13.1381 4.19527C13.2631 4.3203 13.3333 4.48987 13.3333 4.66668V5.33334ZM4.66667 12C4.79852 12 4.92741 11.9609 5.03705 11.8877C5.14668 11.8144 5.23213 11.7103 5.28259 11.5885C5.33304 11.4666 5.34625 11.3326 5.32052 11.2033C5.2948 11.074 5.2313 10.9552 5.13807 10.8619C5.04483 10.7687 4.92605 10.7052 4.79673 10.6795C4.66741 10.6538 4.53336 10.667 4.41154 10.7174C4.28973 10.7679 4.18561 10.8533 4.11235 10.963C4.0391 11.0726 4 11.2015 4 11.3333C4 11.5102 4.07024 11.6797 4.19526 11.8047C4.32029 11.9298 4.48985 12 4.66667 12Z" fill="white"/>
</svg>
